M48
INCH
T1C0.0138
T2C0.0236
T3C0.0315
T4C0.0335
T5C0.0394
T6C0.0400
%
G90
G05
T1
X2.31Y-2.32
X2.31Y-2.74
X2.35Y-2.92
X2.36Y-2.09
X2.36Y-2.31
X2.46Y-2.27
X2.49Y-2.74
X2.57Y-2.52
X2.61Y-2.18
X2.67Y-2.01
X2.71Y-2.55
X2.75Y-2.75
X2.79Y-2.89
X2.84Y-2.84
X2.88Y-2.79
X3.02Y-2.76
X3.09Y-2.09
X3.09Y-2.32
X3.11Y-2.55
X3.19Y-2.27
X3.3Y-2.74
X3.33Y-2.71
X3.36Y-2.68
X3.4Y-2.14
X3.57Y-2.28
X3.57Y-2.52
X3.66Y-2.96
X3.82Y-2.08
X3.82Y-2.3
X3.92Y-2.27
X3.99Y-2.32
T4
X3.2216Y-3.1824
X3.4184Y-3.1824
T5
X3.6Y-2.78
X3.6Y-2.88
X3.6Y-2.98
X3.6Y-3.08
X3.6Y-3.18
X3.6Y-3.28
X2.04Y-2.84
X2.04Y-2.94
X2.14Y-2.84
X2.14Y-2.94
X2.24Y-2.84
X2.24Y-2.94
X3.61Y-2.61
X3.71Y-2.61
X3.81Y-2.61
T6
X2.04Y-3.12
X2.04Y-3.22
X2.14Y-3.12
X2.14Y-3.22
X2.24Y-3.12
X2.24Y-3.22
X2.34Y-3.12
X2.34Y-3.22
X2.44Y-3.12
X2.44Y-3.22
X2.54Y-3.12
X2.54Y-3.22
X2.64Y-3.12
X2.64Y-3.22
X2.74Y-3.12
X2.74Y-3.22
X2.84Y-3.12
X2.84Y-3.22
X2.94Y-3.12
X2.94Y-3.22
X3.04Y-3.12
X3.04Y-3.22
X2.39Y-2.59
X2.39Y-2.99
X2.99Y-2.59
X2.99Y-2.99
T2
G00X3.1822Y-3.3025
M15
G01X3.1822Y-3.2749
M16
G05
G00X3.4578Y-3.2749
M15
G01X3.4578Y-3.3025
M16
G05
T3
G00X3.8288Y-2.84
M15
G01X3.9312Y-2.84
M16
G05
G00X3.8367Y-3.0683
M15
G01X3.9233Y-3.0683
M16
G05
G00X4.069Y-3.0014
M15
G01X4.069Y-2.9148
M16
G05
T0
M30
