G04 #@! TF.GenerationSoftware,KiCad,Pcbnew,5.1.6-c6e7f7d~87~ubuntu18.04.1*
G04 #@! TF.CreationDate,2020-07-14T22:37:44+02:00*
G04 #@! TF.ProjectId,USB-Exp,5553422d-4578-4702-9e6b-696361645f70,1.0*
G04 #@! TF.SameCoordinates,Original*
G04 #@! TF.FileFunction,Paste,Bot*
G04 #@! TF.FilePolarity,Positive*
%FSLAX46Y46*%
G04 Gerber Fmt 4.6, Leading zero omitted, Abs format (unit mm)*
G04 Created by KiCad (PCBNEW 5.1.6-c6e7f7d~87~ubuntu18.04.1) date 2020-07-14 22:37:44*
%MOMM*%
%LPD*%
G01*
G04 APERTURE LIST*
%ADD10R,0.800000X0.900000*%
G04 APERTURE END LIST*
G36*
G01*
X99880000Y-50603999D02*
X99880000Y-51504001D01*
G75*
G02*
X99630001Y-51754000I-249999J0D01*
G01*
X98979999Y-51754000D01*
G75*
G02*
X98730000Y-51504001I0J249999D01*
G01*
X98730000Y-50603999D01*
G75*
G02*
X98979999Y-50354000I249999J0D01*
G01*
X99630001Y-50354000D01*
G75*
G02*
X99880000Y-50603999I0J-249999D01*
G01*
G37*
G36*
G01*
X101930000Y-50603999D02*
X101930000Y-51504001D01*
G75*
G02*
X101680001Y-51754000I-249999J0D01*
G01*
X101029999Y-51754000D01*
G75*
G02*
X100780000Y-51504001I0J249999D01*
G01*
X100780000Y-50603999D01*
G75*
G02*
X101029999Y-50354000I249999J0D01*
G01*
X101680001Y-50354000D01*
G75*
G02*
X101930000Y-50603999I0J-249999D01*
G01*
G37*
G36*
G01*
X81338000Y-50603999D02*
X81338000Y-51504001D01*
G75*
G02*
X81088001Y-51754000I-249999J0D01*
G01*
X80437999Y-51754000D01*
G75*
G02*
X80188000Y-51504001I0J249999D01*
G01*
X80188000Y-50603999D01*
G75*
G02*
X80437999Y-50354000I249999J0D01*
G01*
X81088001Y-50354000D01*
G75*
G02*
X81338000Y-50603999I0J-249999D01*
G01*
G37*
G36*
G01*
X83388000Y-50603999D02*
X83388000Y-51504001D01*
G75*
G02*
X83138001Y-51754000I-249999J0D01*
G01*
X82487999Y-51754000D01*
G75*
G02*
X82238000Y-51504001I0J249999D01*
G01*
X82238000Y-50603999D01*
G75*
G02*
X82487999Y-50354000I249999J0D01*
G01*
X83138001Y-50354000D01*
G75*
G02*
X83388000Y-50603999I0J-249999D01*
G01*
G37*
G36*
G01*
X62796000Y-50603999D02*
X62796000Y-51504001D01*
G75*
G02*
X62546001Y-51754000I-249999J0D01*
G01*
X61895999Y-51754000D01*
G75*
G02*
X61646000Y-51504001I0J249999D01*
G01*
X61646000Y-50603999D01*
G75*
G02*
X61895999Y-50354000I249999J0D01*
G01*
X62546001Y-50354000D01*
G75*
G02*
X62796000Y-50603999I0J-249999D01*
G01*
G37*
G36*
G01*
X64846000Y-50603999D02*
X64846000Y-51504001D01*
G75*
G02*
X64596001Y-51754000I-249999J0D01*
G01*
X63945999Y-51754000D01*
G75*
G02*
X63696000Y-51504001I0J249999D01*
G01*
X63696000Y-50603999D01*
G75*
G02*
X63945999Y-50354000I249999J0D01*
G01*
X64596001Y-50354000D01*
G75*
G02*
X64846000Y-50603999I0J-249999D01*
G01*
G37*
G36*
G01*
X92135000Y-51504001D02*
X92135000Y-50603999D01*
G75*
G02*
X92384999Y-50354000I249999J0D01*
G01*
X93035001Y-50354000D01*
G75*
G02*
X93285000Y-50603999I0J-249999D01*
G01*
X93285000Y-51504001D01*
G75*
G02*
X93035001Y-51754000I-249999J0D01*
G01*
X92384999Y-51754000D01*
G75*
G02*
X92135000Y-51504001I0J249999D01*
G01*
G37*
G36*
G01*
X90085000Y-51504001D02*
X90085000Y-50603999D01*
G75*
G02*
X90334999Y-50354000I249999J0D01*
G01*
X90985001Y-50354000D01*
G75*
G02*
X91235000Y-50603999I0J-249999D01*
G01*
X91235000Y-51504001D01*
G75*
G02*
X90985001Y-51754000I-249999J0D01*
G01*
X90334999Y-51754000D01*
G75*
G02*
X90085000Y-51504001I0J249999D01*
G01*
G37*
G36*
G01*
X73602000Y-51504001D02*
X73602000Y-50603999D01*
G75*
G02*
X73851999Y-50354000I249999J0D01*
G01*
X74502001Y-50354000D01*
G75*
G02*
X74752000Y-50603999I0J-249999D01*
G01*
X74752000Y-51504001D01*
G75*
G02*
X74502001Y-51754000I-249999J0D01*
G01*
X73851999Y-51754000D01*
G75*
G02*
X73602000Y-51504001I0J249999D01*
G01*
G37*
G36*
G01*
X71552000Y-51504001D02*
X71552000Y-50603999D01*
G75*
G02*
X71801999Y-50354000I249999J0D01*
G01*
X72452001Y-50354000D01*
G75*
G02*
X72702000Y-50603999I0J-249999D01*
G01*
X72702000Y-51504001D01*
G75*
G02*
X72452001Y-51754000I-249999J0D01*
G01*
X71801999Y-51754000D01*
G75*
G02*
X71552000Y-51504001I0J249999D01*
G01*
G37*
G36*
G01*
X55051000Y-51504001D02*
X55051000Y-50603999D01*
G75*
G02*
X55300999Y-50354000I249999J0D01*
G01*
X55951001Y-50354000D01*
G75*
G02*
X56201000Y-50603999I0J-249999D01*
G01*
X56201000Y-51504001D01*
G75*
G02*
X55951001Y-51754000I-249999J0D01*
G01*
X55300999Y-51754000D01*
G75*
G02*
X55051000Y-51504001I0J249999D01*
G01*
G37*
G36*
G01*
X53001000Y-51504001D02*
X53001000Y-50603999D01*
G75*
G02*
X53250999Y-50354000I249999J0D01*
G01*
X53901001Y-50354000D01*
G75*
G02*
X54151000Y-50603999I0J-249999D01*
G01*
X54151000Y-51504001D01*
G75*
G02*
X53901001Y-51754000I-249999J0D01*
G01*
X53250999Y-51754000D01*
G75*
G02*
X53001000Y-51504001I0J249999D01*
G01*
G37*
G36*
G01*
X96462000Y-56838001D02*
X96462000Y-55937999D01*
G75*
G02*
X96711999Y-55688000I249999J0D01*
G01*
X97362001Y-55688000D01*
G75*
G02*
X97612000Y-55937999I0J-249999D01*
G01*
X97612000Y-56838001D01*
G75*
G02*
X97362001Y-57088000I-249999J0D01*
G01*
X96711999Y-57088000D01*
G75*
G02*
X96462000Y-56838001I0J249999D01*
G01*
G37*
G36*
G01*
X94412000Y-56838001D02*
X94412000Y-55937999D01*
G75*
G02*
X94661999Y-55688000I249999J0D01*
G01*
X95312001Y-55688000D01*
G75*
G02*
X95562000Y-55937999I0J-249999D01*
G01*
X95562000Y-56838001D01*
G75*
G02*
X95312001Y-57088000I-249999J0D01*
G01*
X94661999Y-57088000D01*
G75*
G02*
X94412000Y-56838001I0J249999D01*
G01*
G37*
G36*
G01*
X77920000Y-56838001D02*
X77920000Y-55937999D01*
G75*
G02*
X78169999Y-55688000I249999J0D01*
G01*
X78820001Y-55688000D01*
G75*
G02*
X79070000Y-55937999I0J-249999D01*
G01*
X79070000Y-56838001D01*
G75*
G02*
X78820001Y-57088000I-249999J0D01*
G01*
X78169999Y-57088000D01*
G75*
G02*
X77920000Y-56838001I0J249999D01*
G01*
G37*
G36*
G01*
X75870000Y-56838001D02*
X75870000Y-55937999D01*
G75*
G02*
X76119999Y-55688000I249999J0D01*
G01*
X76770001Y-55688000D01*
G75*
G02*
X77020000Y-55937999I0J-249999D01*
G01*
X77020000Y-56838001D01*
G75*
G02*
X76770001Y-57088000I-249999J0D01*
G01*
X76119999Y-57088000D01*
G75*
G02*
X75870000Y-56838001I0J249999D01*
G01*
G37*
G36*
G01*
X59378000Y-56838001D02*
X59378000Y-55937999D01*
G75*
G02*
X59627999Y-55688000I249999J0D01*
G01*
X60278001Y-55688000D01*
G75*
G02*
X60528000Y-55937999I0J-249999D01*
G01*
X60528000Y-56838001D01*
G75*
G02*
X60278001Y-57088000I-249999J0D01*
G01*
X59627999Y-57088000D01*
G75*
G02*
X59378000Y-56838001I0J249999D01*
G01*
G37*
G36*
G01*
X57328000Y-56838001D02*
X57328000Y-55937999D01*
G75*
G02*
X57577999Y-55688000I249999J0D01*
G01*
X58228001Y-55688000D01*
G75*
G02*
X58478000Y-55937999I0J-249999D01*
G01*
X58478000Y-56838001D01*
G75*
G02*
X58228001Y-57088000I-249999J0D01*
G01*
X57577999Y-57088000D01*
G75*
G02*
X57328000Y-56838001I0J249999D01*
G01*
G37*
D10*
X100584000Y-56372000D03*
X101534000Y-54372000D03*
X99634000Y-54372000D03*
X82042000Y-56372000D03*
X82992000Y-54372000D03*
X81092000Y-54372000D03*
X63500000Y-56372000D03*
X64450000Y-54372000D03*
X62550000Y-54372000D03*
X91440000Y-54372000D03*
X90490000Y-56372000D03*
X92390000Y-56372000D03*
X72898000Y-54372000D03*
X71948000Y-56372000D03*
X73848000Y-56372000D03*
X54356000Y-54372000D03*
X53406000Y-56372000D03*
X55306000Y-56372000D03*
G36*
G01*
X95571000Y-50603999D02*
X95571000Y-51504001D01*
G75*
G02*
X95321001Y-51754000I-249999J0D01*
G01*
X94670999Y-51754000D01*
G75*
G02*
X94421000Y-51504001I0J249999D01*
G01*
X94421000Y-50603999D01*
G75*
G02*
X94670999Y-50354000I249999J0D01*
G01*
X95321001Y-50354000D01*
G75*
G02*
X95571000Y-50603999I0J-249999D01*
G01*
G37*
G36*
G01*
X97621000Y-50603999D02*
X97621000Y-51504001D01*
G75*
G02*
X97371001Y-51754000I-249999J0D01*
G01*
X96720999Y-51754000D01*
G75*
G02*
X96471000Y-51504001I0J249999D01*
G01*
X96471000Y-50603999D01*
G75*
G02*
X96720999Y-50354000I249999J0D01*
G01*
X97371001Y-50354000D01*
G75*
G02*
X97621000Y-50603999I0J-249999D01*
G01*
G37*
G36*
G01*
X77020000Y-50603999D02*
X77020000Y-51504001D01*
G75*
G02*
X76770001Y-51754000I-249999J0D01*
G01*
X76119999Y-51754000D01*
G75*
G02*
X75870000Y-51504001I0J249999D01*
G01*
X75870000Y-50603999D01*
G75*
G02*
X76119999Y-50354000I249999J0D01*
G01*
X76770001Y-50354000D01*
G75*
G02*
X77020000Y-50603999I0J-249999D01*
G01*
G37*
G36*
G01*
X79070000Y-50603999D02*
X79070000Y-51504001D01*
G75*
G02*
X78820001Y-51754000I-249999J0D01*
G01*
X78169999Y-51754000D01*
G75*
G02*
X77920000Y-51504001I0J249999D01*
G01*
X77920000Y-50603999D01*
G75*
G02*
X78169999Y-50354000I249999J0D01*
G01*
X78820001Y-50354000D01*
G75*
G02*
X79070000Y-50603999I0J-249999D01*
G01*
G37*
G36*
G01*
X58469000Y-50603999D02*
X58469000Y-51504001D01*
G75*
G02*
X58219001Y-51754000I-249999J0D01*
G01*
X57568999Y-51754000D01*
G75*
G02*
X57319000Y-51504001I0J249999D01*
G01*
X57319000Y-50603999D01*
G75*
G02*
X57568999Y-50354000I249999J0D01*
G01*
X58219001Y-50354000D01*
G75*
G02*
X58469000Y-50603999I0J-249999D01*
G01*
G37*
G36*
G01*
X60519000Y-50603999D02*
X60519000Y-51504001D01*
G75*
G02*
X60269001Y-51754000I-249999J0D01*
G01*
X59618999Y-51754000D01*
G75*
G02*
X59369000Y-51504001I0J249999D01*
G01*
X59369000Y-50603999D01*
G75*
G02*
X59618999Y-50354000I249999J0D01*
G01*
X60269001Y-50354000D01*
G75*
G02*
X60519000Y-50603999I0J-249999D01*
G01*
G37*
M02*
