M48
INCH,TZ
T1C0.0138
T2C0.0236
T3C0.0315
T4C0.0335
T5C0.0394
T6C0.0400
%
G90
G05
T1
X23100Y-23200
X23100Y-27400
X23500Y-29200
X23600Y-20900
X23600Y-23100
X24600Y-22700
X24900Y-27400
X25700Y-25200
X26100Y-21800
X26700Y-20100
X27100Y-25500
X27500Y-27500
X27900Y-28900
X28400Y-28400
X28800Y-27900
X30200Y-27600
X30900Y-20900
X30900Y-23200
X31100Y-25500
X31900Y-22700
X33000Y-27400
X33300Y-27100
X33600Y-26800
X34000Y-21400
X35700Y-22800
X35700Y-25200
X36600Y-29600
X38200Y-20800
X38200Y-23000
X39200Y-22700
X39900Y-23200
T4
X32216Y-31824
X34184Y-31824
T5
X20400Y-28400
X20400Y-29400
X21400Y-28400
X21400Y-29400
X22400Y-28400
X22400Y-29400
X36100Y-26100
X37100Y-26100
X38100Y-26100
X36000Y-27800
X36000Y-28800
X36000Y-29800
X36000Y-30800
X36000Y-31800
X36000Y-32800
T6
X20400Y-31200
X20400Y-32200
X21400Y-31200
X21400Y-32200
X22400Y-31200
X22400Y-32200
X23400Y-31200
X23400Y-32200
X24400Y-31200
X24400Y-32200
X25400Y-31200
X25400Y-32200
X26400Y-31200
X26400Y-32200
X27400Y-31200
X27400Y-32200
X28400Y-31200
X28400Y-32200
X29400Y-31200
X29400Y-32200
X30400Y-31200
X30400Y-32200
X23900Y-25900
X23900Y-29900
X29900Y-25900
X29900Y-29900
T2
G00X31822Y-33025
M15
G01X31822Y-32749
M16
G05
G00X34578Y-32749
M15
G01X34578Y-33025
M16
G05
T3
G00X38288Y-28400
M15
G01X39312Y-28400
M16
G05
G00X38367Y-30683
M15
G01X39233Y-30683
M16
G05
G00X40690Y-30014
M15
G01X40690Y-29148
M16
G05
T0
M30
