%TF.GenerationSoftware,KiCad,Pcbnew,5.1.6-c6e7f7d~86~ubuntu18.04.1*%
%TF.CreationDate,2020-06-20T11:39:55+02:00*%
%TF.ProjectId,USB-Exp,5553422d-4578-4702-9e6b-696361645f70,1.0*%
%TF.SameCoordinates,Original*%
%TF.FileFunction,Soldermask,Bot*%
%TF.FilePolarity,Negative*%
%FSLAX46Y46*%
G04 Gerber Fmt 4.6, Leading zero omitted, Abs format (unit mm)*
G04 Created by KiCad (PCBNEW 5.1.6-c6e7f7d~86~ubuntu18.04.1) date 2020-06-20 11:39:55*
%MOMM*%
%LPD*%
G01*
G04 APERTURE LIST*
%TA.AperFunction,Profile*%
%ADD10C,0.050000*%
%TD*%
%ADD11C,2.800000*%
%ADD12C,1.624000*%
%ADD13R,0.900000X1.000000*%
%ADD14O,1.827200X1.827200*%
%ADD15R,1.827200X1.827200*%
%ADD16O,1.800000X1.800000*%
%ADD17R,1.800000X1.800000*%
%ADD18C,1.400000*%
%ADD19R,4.500000X1.900000*%
%ADD20O,4.100000X1.900000*%
%ADD21O,1.900000X4.100000*%
%ADD22O,1.300000X2.000000*%
%ADD23C,1.550000*%
G04 APERTURE END LIST*
D10*
X50000000Y-50000000D02*
X50000000Y-85000000D01*
X50000000Y-50000000D02*
X105000000Y-50000000D01*
X105000000Y-85000000D02*
X50000000Y-85000000D01*
X105000000Y-50000000D02*
X105000000Y-85000000D01*
D11*
%TO.C,REF\u002A\u002A*%
X101854000Y-67310000D03*
%TD*%
%TO.C,REF\u002A\u002A*%
X53086000Y-67310000D03*
%TD*%
D12*
%TO.C,U1*%
X60706000Y-75946000D03*
X60706000Y-65786000D03*
X75946000Y-65786000D03*
X75946000Y-75946000D03*
%TD*%
%TO.C,R9*%
G36*
G01*
X99930000Y-50575738D02*
X99930000Y-51532262D01*
G75*
G02*
X99658262Y-51804000I-271738J0D01*
G01*
X98951738Y-51804000D01*
G75*
G02*
X98680000Y-51532262I0J271738D01*
G01*
X98680000Y-50575738D01*
G75*
G02*
X98951738Y-50304000I271738J0D01*
G01*
X99658262Y-50304000D01*
G75*
G02*
X99930000Y-50575738I0J-271738D01*
G01*
G37*
G36*
G01*
X101980000Y-50575738D02*
X101980000Y-51532262D01*
G75*
G02*
X101708262Y-51804000I-271738J0D01*
G01*
X101001738Y-51804000D01*
G75*
G02*
X100730000Y-51532262I0J271738D01*
G01*
X100730000Y-50575738D01*
G75*
G02*
X101001738Y-50304000I271738J0D01*
G01*
X101708262Y-50304000D01*
G75*
G02*
X101980000Y-50575738I0J-271738D01*
G01*
G37*
%TD*%
%TO.C,R8*%
G36*
G01*
X81388000Y-50575738D02*
X81388000Y-51532262D01*
G75*
G02*
X81116262Y-51804000I-271738J0D01*
G01*
X80409738Y-51804000D01*
G75*
G02*
X80138000Y-51532262I0J271738D01*
G01*
X80138000Y-50575738D01*
G75*
G02*
X80409738Y-50304000I271738J0D01*
G01*
X81116262Y-50304000D01*
G75*
G02*
X81388000Y-50575738I0J-271738D01*
G01*
G37*
G36*
G01*
X83438000Y-50575738D02*
X83438000Y-51532262D01*
G75*
G02*
X83166262Y-51804000I-271738J0D01*
G01*
X82459738Y-51804000D01*
G75*
G02*
X82188000Y-51532262I0J271738D01*
G01*
X82188000Y-50575738D01*
G75*
G02*
X82459738Y-50304000I271738J0D01*
G01*
X83166262Y-50304000D01*
G75*
G02*
X83438000Y-50575738I0J-271738D01*
G01*
G37*
%TD*%
%TO.C,R7*%
G36*
G01*
X62846000Y-50575738D02*
X62846000Y-51532262D01*
G75*
G02*
X62574262Y-51804000I-271738J0D01*
G01*
X61867738Y-51804000D01*
G75*
G02*
X61596000Y-51532262I0J271738D01*
G01*
X61596000Y-50575738D01*
G75*
G02*
X61867738Y-50304000I271738J0D01*
G01*
X62574262Y-50304000D01*
G75*
G02*
X62846000Y-50575738I0J-271738D01*
G01*
G37*
G36*
G01*
X64896000Y-50575738D02*
X64896000Y-51532262D01*
G75*
G02*
X64624262Y-51804000I-271738J0D01*
G01*
X63917738Y-51804000D01*
G75*
G02*
X63646000Y-51532262I0J271738D01*
G01*
X63646000Y-50575738D01*
G75*
G02*
X63917738Y-50304000I271738J0D01*
G01*
X64624262Y-50304000D01*
G75*
G02*
X64896000Y-50575738I0J-271738D01*
G01*
G37*
%TD*%
%TO.C,R6*%
G36*
G01*
X92085000Y-51532262D02*
X92085000Y-50575738D01*
G75*
G02*
X92356738Y-50304000I271738J0D01*
G01*
X93063262Y-50304000D01*
G75*
G02*
X93335000Y-50575738I0J-271738D01*
G01*
X93335000Y-51532262D01*
G75*
G02*
X93063262Y-51804000I-271738J0D01*
G01*
X92356738Y-51804000D01*
G75*
G02*
X92085000Y-51532262I0J271738D01*
G01*
G37*
G36*
G01*
X90035000Y-51532262D02*
X90035000Y-50575738D01*
G75*
G02*
X90306738Y-50304000I271738J0D01*
G01*
X91013262Y-50304000D01*
G75*
G02*
X91285000Y-50575738I0J-271738D01*
G01*
X91285000Y-51532262D01*
G75*
G02*
X91013262Y-51804000I-271738J0D01*
G01*
X90306738Y-51804000D01*
G75*
G02*
X90035000Y-51532262I0J271738D01*
G01*
G37*
%TD*%
%TO.C,R5*%
G36*
G01*
X73552000Y-51532262D02*
X73552000Y-50575738D01*
G75*
G02*
X73823738Y-50304000I271738J0D01*
G01*
X74530262Y-50304000D01*
G75*
G02*
X74802000Y-50575738I0J-271738D01*
G01*
X74802000Y-51532262D01*
G75*
G02*
X74530262Y-51804000I-271738J0D01*
G01*
X73823738Y-51804000D01*
G75*
G02*
X73552000Y-51532262I0J271738D01*
G01*
G37*
G36*
G01*
X71502000Y-51532262D02*
X71502000Y-50575738D01*
G75*
G02*
X71773738Y-50304000I271738J0D01*
G01*
X72480262Y-50304000D01*
G75*
G02*
X72752000Y-50575738I0J-271738D01*
G01*
X72752000Y-51532262D01*
G75*
G02*
X72480262Y-51804000I-271738J0D01*
G01*
X71773738Y-51804000D01*
G75*
G02*
X71502000Y-51532262I0J271738D01*
G01*
G37*
%TD*%
%TO.C,R4*%
G36*
G01*
X55001000Y-51532262D02*
X55001000Y-50575738D01*
G75*
G02*
X55272738Y-50304000I271738J0D01*
G01*
X55979262Y-50304000D01*
G75*
G02*
X56251000Y-50575738I0J-271738D01*
G01*
X56251000Y-51532262D01*
G75*
G02*
X55979262Y-51804000I-271738J0D01*
G01*
X55272738Y-51804000D01*
G75*
G02*
X55001000Y-51532262I0J271738D01*
G01*
G37*
G36*
G01*
X52951000Y-51532262D02*
X52951000Y-50575738D01*
G75*
G02*
X53222738Y-50304000I271738J0D01*
G01*
X53929262Y-50304000D01*
G75*
G02*
X54201000Y-50575738I0J-271738D01*
G01*
X54201000Y-51532262D01*
G75*
G02*
X53929262Y-51804000I-271738J0D01*
G01*
X53222738Y-51804000D01*
G75*
G02*
X52951000Y-51532262I0J271738D01*
G01*
G37*
%TD*%
%TO.C,R3*%
G36*
G01*
X96412000Y-56866262D02*
X96412000Y-55909738D01*
G75*
G02*
X96683738Y-55638000I271738J0D01*
G01*
X97390262Y-55638000D01*
G75*
G02*
X97662000Y-55909738I0J-271738D01*
G01*
X97662000Y-56866262D01*
G75*
G02*
X97390262Y-57138000I-271738J0D01*
G01*
X96683738Y-57138000D01*
G75*
G02*
X96412000Y-56866262I0J271738D01*
G01*
G37*
G36*
G01*
X94362000Y-56866262D02*
X94362000Y-55909738D01*
G75*
G02*
X94633738Y-55638000I271738J0D01*
G01*
X95340262Y-55638000D01*
G75*
G02*
X95612000Y-55909738I0J-271738D01*
G01*
X95612000Y-56866262D01*
G75*
G02*
X95340262Y-57138000I-271738J0D01*
G01*
X94633738Y-57138000D01*
G75*
G02*
X94362000Y-56866262I0J271738D01*
G01*
G37*
%TD*%
%TO.C,R2*%
G36*
G01*
X77870000Y-56866262D02*
X77870000Y-55909738D01*
G75*
G02*
X78141738Y-55638000I271738J0D01*
G01*
X78848262Y-55638000D01*
G75*
G02*
X79120000Y-55909738I0J-271738D01*
G01*
X79120000Y-56866262D01*
G75*
G02*
X78848262Y-57138000I-271738J0D01*
G01*
X78141738Y-57138000D01*
G75*
G02*
X77870000Y-56866262I0J271738D01*
G01*
G37*
G36*
G01*
X75820000Y-56866262D02*
X75820000Y-55909738D01*
G75*
G02*
X76091738Y-55638000I271738J0D01*
G01*
X76798262Y-55638000D01*
G75*
G02*
X77070000Y-55909738I0J-271738D01*
G01*
X77070000Y-56866262D01*
G75*
G02*
X76798262Y-57138000I-271738J0D01*
G01*
X76091738Y-57138000D01*
G75*
G02*
X75820000Y-56866262I0J271738D01*
G01*
G37*
%TD*%
%TO.C,R1*%
G36*
G01*
X59328000Y-56866262D02*
X59328000Y-55909738D01*
G75*
G02*
X59599738Y-55638000I271738J0D01*
G01*
X60306262Y-55638000D01*
G75*
G02*
X60578000Y-55909738I0J-271738D01*
G01*
X60578000Y-56866262D01*
G75*
G02*
X60306262Y-57138000I-271738J0D01*
G01*
X59599738Y-57138000D01*
G75*
G02*
X59328000Y-56866262I0J271738D01*
G01*
G37*
G36*
G01*
X57278000Y-56866262D02*
X57278000Y-55909738D01*
G75*
G02*
X57549738Y-55638000I271738J0D01*
G01*
X58256262Y-55638000D01*
G75*
G02*
X58528000Y-55909738I0J-271738D01*
G01*
X58528000Y-56866262D01*
G75*
G02*
X58256262Y-57138000I-271738J0D01*
G01*
X57549738Y-57138000D01*
G75*
G02*
X57278000Y-56866262I0J271738D01*
G01*
G37*
%TD*%
D13*
%TO.C,Q6*%
X100584000Y-56372000D03*
X101534000Y-54372000D03*
X99634000Y-54372000D03*
%TD*%
%TO.C,Q5*%
X82042000Y-56372000D03*
X82992000Y-54372000D03*
X81092000Y-54372000D03*
%TD*%
%TO.C,Q4*%
X63500000Y-56372000D03*
X64450000Y-54372000D03*
X62550000Y-54372000D03*
%TD*%
%TO.C,Q3*%
X91440000Y-54372000D03*
X90490000Y-56372000D03*
X92390000Y-56372000D03*
%TD*%
%TO.C,Q2*%
X72898000Y-54372000D03*
X71948000Y-56372000D03*
X73848000Y-56372000D03*
%TD*%
%TO.C,Q1*%
X54356000Y-54372000D03*
X53406000Y-56372000D03*
X55306000Y-56372000D03*
%TD*%
D14*
%TO.C,P1*%
X77216000Y-79248000D03*
X77216000Y-81788000D03*
X59436000Y-79248000D03*
X59436000Y-81788000D03*
X56896000Y-79248000D03*
X56896000Y-81788000D03*
X54356000Y-79248000D03*
X54356000Y-81788000D03*
X51816000Y-79248000D03*
D15*
X51816000Y-81788000D03*
D14*
X61976000Y-81788000D03*
X61976000Y-79248000D03*
X64516000Y-81788000D03*
X64516000Y-79248000D03*
X67056000Y-81788000D03*
X67056000Y-79248000D03*
X69596000Y-81788000D03*
X69596000Y-79248000D03*
X72136000Y-81788000D03*
X72136000Y-79248000D03*
X74676000Y-81788000D03*
X74676000Y-79248000D03*
%TD*%
D16*
%TO.C,JP1*%
X91694000Y-66294000D03*
X94234000Y-66294000D03*
D17*
X96774000Y-66294000D03*
%TD*%
D16*
%TO.C,J7*%
X91440000Y-83312000D03*
X91440000Y-80772000D03*
X91440000Y-78232000D03*
X91440000Y-75692000D03*
X91440000Y-73152000D03*
D17*
X91440000Y-70612000D03*
%TD*%
D16*
%TO.C,J6*%
X51816000Y-74676000D03*
X51816000Y-72136000D03*
X54356000Y-74676000D03*
X54356000Y-72136000D03*
X56896000Y-74676000D03*
D17*
X56896000Y-72136000D03*
%TD*%
D18*
%TO.C,J5*%
X93512000Y-58674000D03*
X98512000Y-58674000D03*
%TD*%
%TO.C,J4*%
X74970000Y-58674000D03*
X79970000Y-58674000D03*
%TD*%
%TO.C,J3*%
X56428000Y-58674000D03*
X61428000Y-58674000D03*
%TD*%
D19*
%TO.C,J2*%
X98552000Y-72136000D03*
D20*
X98552000Y-77936000D03*
D21*
X103352000Y-75136000D03*
%TD*%
D22*
%TO.C,J1*%
X87828000Y-83533500D03*
X80828000Y-83533500D03*
D23*
X86828000Y-80833500D03*
X81828000Y-80833500D03*
%TD*%
%TO.C,D3*%
G36*
G01*
X95621000Y-50575738D02*
X95621000Y-51532262D01*
G75*
G02*
X95349262Y-51804000I-271738J0D01*
G01*
X94642738Y-51804000D01*
G75*
G02*
X94371000Y-51532262I0J271738D01*
G01*
X94371000Y-50575738D01*
G75*
G02*
X94642738Y-50304000I271738J0D01*
G01*
X95349262Y-50304000D01*
G75*
G02*
X95621000Y-50575738I0J-271738D01*
G01*
G37*
G36*
G01*
X97671000Y-50575738D02*
X97671000Y-51532262D01*
G75*
G02*
X97399262Y-51804000I-271738J0D01*
G01*
X96692738Y-51804000D01*
G75*
G02*
X96421000Y-51532262I0J271738D01*
G01*
X96421000Y-50575738D01*
G75*
G02*
X96692738Y-50304000I271738J0D01*
G01*
X97399262Y-50304000D01*
G75*
G02*
X97671000Y-50575738I0J-271738D01*
G01*
G37*
%TD*%
%TO.C,D2*%
G36*
G01*
X77070000Y-50575738D02*
X77070000Y-51532262D01*
G75*
G02*
X76798262Y-51804000I-271738J0D01*
G01*
X76091738Y-51804000D01*
G75*
G02*
X75820000Y-51532262I0J271738D01*
G01*
X75820000Y-50575738D01*
G75*
G02*
X76091738Y-50304000I271738J0D01*
G01*
X76798262Y-50304000D01*
G75*
G02*
X77070000Y-50575738I0J-271738D01*
G01*
G37*
G36*
G01*
X79120000Y-50575738D02*
X79120000Y-51532262D01*
G75*
G02*
X78848262Y-51804000I-271738J0D01*
G01*
X78141738Y-51804000D01*
G75*
G02*
X77870000Y-51532262I0J271738D01*
G01*
X77870000Y-50575738D01*
G75*
G02*
X78141738Y-50304000I271738J0D01*
G01*
X78848262Y-50304000D01*
G75*
G02*
X79120000Y-50575738I0J-271738D01*
G01*
G37*
%TD*%
%TO.C,D1*%
G36*
G01*
X58519000Y-50575738D02*
X58519000Y-51532262D01*
G75*
G02*
X58247262Y-51804000I-271738J0D01*
G01*
X57540738Y-51804000D01*
G75*
G02*
X57269000Y-51532262I0J271738D01*
G01*
X57269000Y-50575738D01*
G75*
G02*
X57540738Y-50304000I271738J0D01*
G01*
X58247262Y-50304000D01*
G75*
G02*
X58519000Y-50575738I0J-271738D01*
G01*
G37*
G36*
G01*
X60569000Y-50575738D02*
X60569000Y-51532262D01*
G75*
G02*
X60297262Y-51804000I-271738J0D01*
G01*
X59590738Y-51804000D01*
G75*
G02*
X59319000Y-51532262I0J271738D01*
G01*
X59319000Y-50575738D01*
G75*
G02*
X59590738Y-50304000I271738J0D01*
G01*
X60297262Y-50304000D01*
G75*
G02*
X60569000Y-50575738I0J-271738D01*
G01*
G37*
%TD*%
M02*
